# xmcd
#
# Track frame offsets: 
#        150
#        14266
#        24856
#        36481
#        47799
#        59388
#        70990
#        83031
#        96455
#        107922
#        120709
#        131853
#        145192
#        155226
#        167677
#        180783
#        193013
#        207510
#        216781
#        232166
#
# Disc length: 3271 seconds
#
# Revision: 2
# Processed by: cddbd v1.5.2PL0 Copyright (c) Steve Scherf et al.
# Submitted via: ExactAudioCopy v0.99pb4
#
DISCID=290cc514
DTITLE=Various Artist - American Roadsongs From Coast To Coast [CD 8]
DTITLE=T For Texas
DYEAR=2006
DGENRE=Country
TTITLE0=Milton Brown - The Eyes Of Texas
TTITLE1=Gene O'Quinn - Texas Boogie
TTITLE2=Patsy Montana - Deep In The Heart Of Texas
TTITLE3=Rocky Mountain Boys - Down Texas Way
TTITLE4=Light Crust Doughboys - Texas Song Of Pride
TTITLE5=Dave Red River - Yellow Rose Of Texas
TTITLE6=Paul Howard - Texas Boogie
TTITLE7=Ernest Tubb - There's A Little Bit Of Everything In Texas
TTITLE8=Joan Brooks - Heading Back To Houston
TTITLE9=Lloyd Glenn - Texas Man
TTITLE10=Jim Boyd - Waxahachie
TTITLE11=Tex Williams - I Got Texas In My Soul
TTITLE12=Sheb Wooley - Goodbye Texas Hallo Tennessee
TTITLE13=Moon Mullican - I Left My Heart In Texas
TTITLE14=Ozie Waters - I Can't Get Out Of Texas In My Dreams
TTITLE15=Andy Parker - Texas Belle
TTITLE16=Del Sharbutt - Never Ask A Man If He's From Texas
TTITLE17=Steve Schulte - Texas Blues
TTITLE18=Jimmie Rodgers - T For Texas
TTITLE19=Tune Wranglers - El Rancho Grande
EXTD=
EXTT0=
EXTT1=
EXTT2=
EXTT3=
EXTT4=
EXTT5=
EXTT6=
EXTT7=
EXTT8=
EXTT9=
EXTT10=
EXTT11=
EXTT12=
EXTT13=
EXTT14=
EXTT15=
EXTT16=
EXTT17=
EXTT18=
EXTT19=
PLAYORDER=
